G04 #@! TF.GenerationSoftware,KiCad,Pcbnew,(5.1.6)-1*
G04 #@! TF.CreationDate,2020-09-16T08:59:51-06:00*
G04 #@! TF.ProjectId,Practica_1,50726163-7469-4636-915f-312e6b696361,rev?*
G04 #@! TF.SameCoordinates,Original*
G04 #@! TF.FileFunction,Copper,L1,Top*
G04 #@! TF.FilePolarity,Positive*
%FSLAX46Y46*%
G04 Gerber Fmt 4.6, Leading zero omitted, Abs format (unit mm)*
G04 Created by KiCad (PCBNEW (5.1.6)-1) date 2020-09-16 08:59:51*
%MOMM*%
%LPD*%
G01*
G04 APERTURE LIST*
G04 #@! TA.AperFunction,ComponentPad*
%ADD10C,10.160000*%
G04 #@! TD*
G04 #@! TA.AperFunction,ComponentPad*
%ADD11O,2.000000X2.000000*%
G04 #@! TD*
G04 #@! TA.AperFunction,ComponentPad*
%ADD12R,2.000000X2.000000*%
G04 #@! TD*
G04 #@! TA.AperFunction,ComponentPad*
%ADD13C,2.000000*%
G04 #@! TD*
G04 #@! TA.AperFunction,ComponentPad*
%ADD14C,1.620000*%
G04 #@! TD*
G04 #@! TA.AperFunction,ComponentPad*
%ADD15C,4.000000*%
G04 #@! TD*
G04 #@! TA.AperFunction,ComponentPad*
%ADD16C,1.600000*%
G04 #@! TD*
G04 #@! TA.AperFunction,ComponentPad*
%ADD17R,1.600000X1.600000*%
G04 #@! TD*
G04 #@! TA.AperFunction,ComponentPad*
%ADD18O,1.600000X1.600000*%
G04 #@! TD*
G04 #@! TA.AperFunction,ComponentPad*
%ADD19O,1.400000X1.400000*%
G04 #@! TD*
G04 #@! TA.AperFunction,ComponentPad*
%ADD20C,1.400000*%
G04 #@! TD*
G04 #@! TA.AperFunction,ComponentPad*
%ADD21C,2.400000*%
G04 #@! TD*
G04 #@! TA.AperFunction,ComponentPad*
%ADD22R,2.400000X2.400000*%
G04 #@! TD*
G04 #@! TA.AperFunction,ComponentPad*
%ADD23C,1.200000*%
G04 #@! TD*
G04 #@! TA.AperFunction,ComponentPad*
%ADD24R,1.200000X1.200000*%
G04 #@! TD*
G04 #@! TA.AperFunction,Conductor*
%ADD25C,1.200000*%
G04 #@! TD*
G04 APERTURE END LIST*
D10*
X69850000Y-127000000D03*
X69850000Y-49530000D03*
X195580000Y-48260000D03*
X195580000Y-128270000D03*
D11*
X161290000Y-93980000D03*
D12*
X161290000Y-88900000D03*
D13*
X172870000Y-48260000D03*
X172870000Y-52760000D03*
X166370000Y-48260000D03*
X166370000Y-52760000D03*
X161440000Y-48260000D03*
X161440000Y-52760000D03*
X154940000Y-48260000D03*
X154940000Y-52760000D03*
X150010000Y-48260000D03*
X150010000Y-52760000D03*
X143510000Y-48260000D03*
X143510000Y-52760000D03*
X138580000Y-48260000D03*
X138580000Y-52760000D03*
X132080000Y-48260000D03*
X132080000Y-52760000D03*
X127150000Y-48260000D03*
X127150000Y-52760000D03*
X120650000Y-48260000D03*
X120650000Y-52760000D03*
X115720000Y-48260000D03*
X115720000Y-52760000D03*
X109220000Y-48260000D03*
X109220000Y-52760000D03*
X104290000Y-48260000D03*
X104290000Y-52760000D03*
X97790000Y-48260000D03*
X97790000Y-52760000D03*
X87480000Y-52070000D03*
X87480000Y-47570000D03*
X93980000Y-52070000D03*
X93980000Y-47570000D03*
D14*
X175260000Y-88900000D03*
X177760000Y-91400000D03*
X175260000Y-93900000D03*
X167640000Y-88900000D03*
X170140000Y-91400000D03*
X167640000Y-93900000D03*
X130810000Y-109220000D03*
X133310000Y-106720000D03*
X135810000Y-109220000D03*
D15*
X75900000Y-103130000D03*
X75900000Y-78130000D03*
D16*
X73360000Y-94785000D03*
X73360000Y-92015000D03*
X73360000Y-89245000D03*
X73360000Y-86475000D03*
X76200000Y-96170000D03*
X76200000Y-93400000D03*
X76200000Y-90630000D03*
X76200000Y-87860000D03*
D17*
X76200000Y-85090000D03*
D18*
X105410000Y-97790000D03*
X87630000Y-90170000D03*
X102870000Y-97790000D03*
X90170000Y-90170000D03*
X100330000Y-97790000D03*
X92710000Y-90170000D03*
X97790000Y-97790000D03*
X95250000Y-90170000D03*
X95250000Y-97790000D03*
X97790000Y-90170000D03*
X92710000Y-97790000D03*
X100330000Y-90170000D03*
X90170000Y-97790000D03*
X102870000Y-90170000D03*
X87630000Y-97790000D03*
D17*
X105410000Y-90170000D03*
D19*
X109220000Y-110490000D03*
D20*
X101600000Y-110490000D03*
D19*
X144780000Y-58420000D03*
D20*
X144780000Y-66040000D03*
D19*
X119380000Y-66040000D03*
D20*
X119380000Y-58420000D03*
D19*
X110490000Y-66040000D03*
D20*
X110490000Y-58420000D03*
D19*
X99060000Y-66040000D03*
D20*
X99060000Y-58420000D03*
D19*
X153670000Y-58420000D03*
D20*
X153670000Y-66040000D03*
D19*
X139700000Y-58420000D03*
D20*
X139700000Y-66040000D03*
D19*
X130810000Y-58420000D03*
D20*
X130810000Y-66040000D03*
D19*
X87630000Y-58420000D03*
D20*
X87630000Y-66040000D03*
D19*
X148590000Y-58420000D03*
D20*
X148590000Y-66040000D03*
D19*
X162560000Y-58420000D03*
D20*
X162560000Y-66040000D03*
D19*
X114300000Y-66040000D03*
D20*
X114300000Y-58420000D03*
D19*
X104140000Y-66040000D03*
D20*
X104140000Y-58420000D03*
D19*
X157480000Y-58420000D03*
D20*
X157480000Y-66040000D03*
D19*
X118110000Y-88900000D03*
D20*
X118110000Y-96520000D03*
D19*
X123190000Y-88900000D03*
D20*
X123190000Y-96520000D03*
D19*
X128270000Y-88900000D03*
D20*
X128270000Y-96520000D03*
D19*
X133350000Y-88900000D03*
D20*
X133350000Y-96520000D03*
D19*
X138430000Y-88900000D03*
D20*
X138430000Y-96520000D03*
D19*
X143510000Y-88900000D03*
D20*
X143510000Y-96520000D03*
D19*
X148590000Y-88900000D03*
D20*
X148590000Y-96520000D03*
D19*
X153670000Y-88900000D03*
D20*
X153670000Y-96520000D03*
D19*
X135890000Y-58420000D03*
D20*
X135890000Y-66040000D03*
D19*
X82550000Y-58420000D03*
D20*
X82550000Y-66040000D03*
D19*
X92710000Y-58420000D03*
D20*
X92710000Y-66040000D03*
D21*
X172100000Y-81280000D03*
X168600000Y-81280000D03*
D22*
X165100000Y-81280000D03*
D21*
X119750000Y-72390000D03*
X116250000Y-72390000D03*
X112750000Y-72390000D03*
X109250000Y-72390000D03*
X105750000Y-72390000D03*
X102250000Y-72390000D03*
X98750000Y-72390000D03*
D22*
X95250000Y-72390000D03*
D21*
X159460000Y-124460000D03*
X155960000Y-124460000D03*
X152460000Y-124460000D03*
X148960000Y-124460000D03*
X145460000Y-124460000D03*
X141960000Y-124460000D03*
X138460000Y-124460000D03*
X134960000Y-124460000D03*
X131460000Y-124460000D03*
X127960000Y-124460000D03*
D22*
X124460000Y-124460000D03*
D21*
X159800000Y-115570000D03*
X156300000Y-115570000D03*
X152800000Y-115570000D03*
X149300000Y-115570000D03*
X145800000Y-115570000D03*
X142300000Y-115570000D03*
X138800000Y-115570000D03*
X135300000Y-115570000D03*
X131800000Y-115570000D03*
X128300000Y-115570000D03*
X124800000Y-115570000D03*
X121300000Y-115570000D03*
X117800000Y-115570000D03*
D22*
X114300000Y-115570000D03*
D21*
X146420000Y-83820000D03*
X142920000Y-83820000D03*
X139420000Y-83820000D03*
X135920000Y-83820000D03*
X132420000Y-83820000D03*
X128920000Y-83820000D03*
X125420000Y-83820000D03*
D22*
X121920000Y-83820000D03*
D21*
X75550000Y-118110000D03*
X79050000Y-118110000D03*
D22*
X82550000Y-118110000D03*
D21*
X117490000Y-124460000D03*
X113990000Y-124460000D03*
D22*
X110490000Y-124460000D03*
D21*
X86670000Y-107950000D03*
D22*
X90170000Y-107950000D03*
D21*
X196035001Y-70445001D03*
X192535001Y-70445001D03*
X189035001Y-70445001D03*
X185535001Y-70445001D03*
X182035001Y-70445001D03*
X178535001Y-70445001D03*
X175035001Y-70445001D03*
D22*
X171535001Y-70445001D03*
D21*
X196035001Y-61395001D03*
X192535001Y-61395001D03*
X189035001Y-61395001D03*
X185535001Y-61395001D03*
X182035001Y-61395001D03*
X178535001Y-61395001D03*
X175035001Y-61395001D03*
D22*
X171535001Y-61395001D03*
G04 #@! TA.AperFunction,SMDPad,CuDef*
G36*
G01*
X153270000Y-103170000D02*
X154070000Y-103170000D01*
G75*
G02*
X154320000Y-103420000I0J-250000D01*
G01*
X154320000Y-104245000D01*
G75*
G02*
X154070000Y-104495000I-250000J0D01*
G01*
X153270000Y-104495000D01*
G75*
G02*
X153020000Y-104245000I0J250000D01*
G01*
X153020000Y-103420000D01*
G75*
G02*
X153270000Y-103170000I250000J0D01*
G01*
G37*
G04 #@! TD.AperFunction*
G04 #@! TA.AperFunction,SMDPad,CuDef*
G36*
G01*
X153270000Y-101245000D02*
X154070000Y-101245000D01*
G75*
G02*
X154320000Y-101495000I0J-250000D01*
G01*
X154320000Y-102320000D01*
G75*
G02*
X154070000Y-102570000I-250000J0D01*
G01*
X153270000Y-102570000D01*
G75*
G02*
X153020000Y-102320000I0J250000D01*
G01*
X153020000Y-101495000D01*
G75*
G02*
X153270000Y-101245000I250000J0D01*
G01*
G37*
G04 #@! TD.AperFunction*
G04 #@! TA.AperFunction,SMDPad,CuDef*
G36*
G01*
X148190000Y-103170000D02*
X148990000Y-103170000D01*
G75*
G02*
X149240000Y-103420000I0J-250000D01*
G01*
X149240000Y-104245000D01*
G75*
G02*
X148990000Y-104495000I-250000J0D01*
G01*
X148190000Y-104495000D01*
G75*
G02*
X147940000Y-104245000I0J250000D01*
G01*
X147940000Y-103420000D01*
G75*
G02*
X148190000Y-103170000I250000J0D01*
G01*
G37*
G04 #@! TD.AperFunction*
G04 #@! TA.AperFunction,SMDPad,CuDef*
G36*
G01*
X148190000Y-101245000D02*
X148990000Y-101245000D01*
G75*
G02*
X149240000Y-101495000I0J-250000D01*
G01*
X149240000Y-102320000D01*
G75*
G02*
X148990000Y-102570000I-250000J0D01*
G01*
X148190000Y-102570000D01*
G75*
G02*
X147940000Y-102320000I0J250000D01*
G01*
X147940000Y-101495000D01*
G75*
G02*
X148190000Y-101245000I250000J0D01*
G01*
G37*
G04 #@! TD.AperFunction*
G04 #@! TA.AperFunction,SMDPad,CuDef*
G36*
G01*
X143110000Y-103170000D02*
X143910000Y-103170000D01*
G75*
G02*
X144160000Y-103420000I0J-250000D01*
G01*
X144160000Y-104245000D01*
G75*
G02*
X143910000Y-104495000I-250000J0D01*
G01*
X143110000Y-104495000D01*
G75*
G02*
X142860000Y-104245000I0J250000D01*
G01*
X142860000Y-103420000D01*
G75*
G02*
X143110000Y-103170000I250000J0D01*
G01*
G37*
G04 #@! TD.AperFunction*
G04 #@! TA.AperFunction,SMDPad,CuDef*
G36*
G01*
X143110000Y-101245000D02*
X143910000Y-101245000D01*
G75*
G02*
X144160000Y-101495000I0J-250000D01*
G01*
X144160000Y-102320000D01*
G75*
G02*
X143910000Y-102570000I-250000J0D01*
G01*
X143110000Y-102570000D01*
G75*
G02*
X142860000Y-102320000I0J250000D01*
G01*
X142860000Y-101495000D01*
G75*
G02*
X143110000Y-101245000I250000J0D01*
G01*
G37*
G04 #@! TD.AperFunction*
G04 #@! TA.AperFunction,SMDPad,CuDef*
G36*
G01*
X138030000Y-103170000D02*
X138830000Y-103170000D01*
G75*
G02*
X139080000Y-103420000I0J-250000D01*
G01*
X139080000Y-104245000D01*
G75*
G02*
X138830000Y-104495000I-250000J0D01*
G01*
X138030000Y-104495000D01*
G75*
G02*
X137780000Y-104245000I0J250000D01*
G01*
X137780000Y-103420000D01*
G75*
G02*
X138030000Y-103170000I250000J0D01*
G01*
G37*
G04 #@! TD.AperFunction*
G04 #@! TA.AperFunction,SMDPad,CuDef*
G36*
G01*
X138030000Y-101245000D02*
X138830000Y-101245000D01*
G75*
G02*
X139080000Y-101495000I0J-250000D01*
G01*
X139080000Y-102320000D01*
G75*
G02*
X138830000Y-102570000I-250000J0D01*
G01*
X138030000Y-102570000D01*
G75*
G02*
X137780000Y-102320000I0J250000D01*
G01*
X137780000Y-101495000D01*
G75*
G02*
X138030000Y-101245000I250000J0D01*
G01*
G37*
G04 #@! TD.AperFunction*
G04 #@! TA.AperFunction,SMDPad,CuDef*
G36*
G01*
X132950000Y-103170000D02*
X133750000Y-103170000D01*
G75*
G02*
X134000000Y-103420000I0J-250000D01*
G01*
X134000000Y-104245000D01*
G75*
G02*
X133750000Y-104495000I-250000J0D01*
G01*
X132950000Y-104495000D01*
G75*
G02*
X132700000Y-104245000I0J250000D01*
G01*
X132700000Y-103420000D01*
G75*
G02*
X132950000Y-103170000I250000J0D01*
G01*
G37*
G04 #@! TD.AperFunction*
G04 #@! TA.AperFunction,SMDPad,CuDef*
G36*
G01*
X132950000Y-101245000D02*
X133750000Y-101245000D01*
G75*
G02*
X134000000Y-101495000I0J-250000D01*
G01*
X134000000Y-102320000D01*
G75*
G02*
X133750000Y-102570000I-250000J0D01*
G01*
X132950000Y-102570000D01*
G75*
G02*
X132700000Y-102320000I0J250000D01*
G01*
X132700000Y-101495000D01*
G75*
G02*
X132950000Y-101245000I250000J0D01*
G01*
G37*
G04 #@! TD.AperFunction*
G04 #@! TA.AperFunction,SMDPad,CuDef*
G36*
G01*
X127870000Y-102862500D02*
X128670000Y-102862500D01*
G75*
G02*
X128920000Y-103112500I0J-250000D01*
G01*
X128920000Y-103937500D01*
G75*
G02*
X128670000Y-104187500I-250000J0D01*
G01*
X127870000Y-104187500D01*
G75*
G02*
X127620000Y-103937500I0J250000D01*
G01*
X127620000Y-103112500D01*
G75*
G02*
X127870000Y-102862500I250000J0D01*
G01*
G37*
G04 #@! TD.AperFunction*
G04 #@! TA.AperFunction,SMDPad,CuDef*
G36*
G01*
X127870000Y-100937500D02*
X128670000Y-100937500D01*
G75*
G02*
X128920000Y-101187500I0J-250000D01*
G01*
X128920000Y-102012500D01*
G75*
G02*
X128670000Y-102262500I-250000J0D01*
G01*
X127870000Y-102262500D01*
G75*
G02*
X127620000Y-102012500I0J250000D01*
G01*
X127620000Y-101187500D01*
G75*
G02*
X127870000Y-100937500I250000J0D01*
G01*
G37*
G04 #@! TD.AperFunction*
G04 #@! TA.AperFunction,SMDPad,CuDef*
G36*
G01*
X122790000Y-103170000D02*
X123590000Y-103170000D01*
G75*
G02*
X123840000Y-103420000I0J-250000D01*
G01*
X123840000Y-104245000D01*
G75*
G02*
X123590000Y-104495000I-250000J0D01*
G01*
X122790000Y-104495000D01*
G75*
G02*
X122540000Y-104245000I0J250000D01*
G01*
X122540000Y-103420000D01*
G75*
G02*
X122790000Y-103170000I250000J0D01*
G01*
G37*
G04 #@! TD.AperFunction*
G04 #@! TA.AperFunction,SMDPad,CuDef*
G36*
G01*
X122790000Y-101245000D02*
X123590000Y-101245000D01*
G75*
G02*
X123840000Y-101495000I0J-250000D01*
G01*
X123840000Y-102320000D01*
G75*
G02*
X123590000Y-102570000I-250000J0D01*
G01*
X122790000Y-102570000D01*
G75*
G02*
X122540000Y-102320000I0J250000D01*
G01*
X122540000Y-101495000D01*
G75*
G02*
X122790000Y-101245000I250000J0D01*
G01*
G37*
G04 #@! TD.AperFunction*
G04 #@! TA.AperFunction,SMDPad,CuDef*
G36*
G01*
X117710000Y-103170000D02*
X118510000Y-103170000D01*
G75*
G02*
X118760000Y-103420000I0J-250000D01*
G01*
X118760000Y-104245000D01*
G75*
G02*
X118510000Y-104495000I-250000J0D01*
G01*
X117710000Y-104495000D01*
G75*
G02*
X117460000Y-104245000I0J250000D01*
G01*
X117460000Y-103420000D01*
G75*
G02*
X117710000Y-103170000I250000J0D01*
G01*
G37*
G04 #@! TD.AperFunction*
G04 #@! TA.AperFunction,SMDPad,CuDef*
G36*
G01*
X117710000Y-101245000D02*
X118510000Y-101245000D01*
G75*
G02*
X118760000Y-101495000I0J-250000D01*
G01*
X118760000Y-102320000D01*
G75*
G02*
X118510000Y-102570000I-250000J0D01*
G01*
X117710000Y-102570000D01*
G75*
G02*
X117460000Y-102320000I0J250000D01*
G01*
X117460000Y-101495000D01*
G75*
G02*
X117710000Y-101245000I250000J0D01*
G01*
G37*
G04 #@! TD.AperFunction*
G04 #@! TA.AperFunction,SMDPad,CuDef*
G36*
G01*
X96320000Y-111547500D02*
X96320000Y-111972500D01*
G75*
G02*
X96107500Y-112185000I-212500J0D01*
G01*
X95307500Y-112185000D01*
G75*
G02*
X95095000Y-111972500I0J212500D01*
G01*
X95095000Y-111547500D01*
G75*
G02*
X95307500Y-111335000I212500J0D01*
G01*
X96107500Y-111335000D01*
G75*
G02*
X96320000Y-111547500I0J-212500D01*
G01*
G37*
G04 #@! TD.AperFunction*
G04 #@! TA.AperFunction,SMDPad,CuDef*
G36*
G01*
X97945000Y-111547500D02*
X97945000Y-111972500D01*
G75*
G02*
X97732500Y-112185000I-212500J0D01*
G01*
X96932500Y-112185000D01*
G75*
G02*
X96720000Y-111972500I0J212500D01*
G01*
X96720000Y-111547500D01*
G75*
G02*
X96932500Y-111335000I212500J0D01*
G01*
X97732500Y-111335000D01*
G75*
G02*
X97945000Y-111547500I0J-212500D01*
G01*
G37*
G04 #@! TD.AperFunction*
D23*
X97790000Y-102140000D03*
D24*
X97790000Y-104140000D03*
D23*
X92170000Y-83820000D03*
D24*
X90170000Y-83820000D03*
D23*
X104870000Y-104140000D03*
D24*
X102870000Y-104140000D03*
D23*
X97060000Y-83820000D03*
D24*
X99060000Y-83820000D03*
D23*
X102140000Y-83820000D03*
D24*
X104140000Y-83820000D03*
D25*
X109220000Y-110490000D02*
X109220000Y-107950000D01*
X105410000Y-104140000D02*
X104870000Y-104140000D01*
X109220000Y-107950000D02*
X105410000Y-104140000D01*
X104350001Y-105840001D02*
X104570001Y-105620001D01*
X97790000Y-104140000D02*
X99490001Y-105840001D01*
X99490001Y-105840001D02*
X104350001Y-105840001D01*
X104570001Y-104439999D02*
X104870000Y-104140000D01*
X104570001Y-105620001D02*
X104570001Y-104439999D01*
X76999999Y-95370001D02*
X79889999Y-95370001D01*
X76200000Y-96170000D02*
X76999999Y-95370001D01*
X79889999Y-95097999D02*
X83820000Y-91167998D01*
X79889999Y-95370001D02*
X79889999Y-95097999D01*
X83820000Y-90170000D02*
X90170000Y-83820000D01*
X83820000Y-91167998D02*
X83820000Y-90170000D01*
X118110000Y-103832500D02*
X118110000Y-104140000D01*
X127962500Y-103832500D02*
X128270000Y-103525000D01*
X123190000Y-103832500D02*
X127962500Y-103832500D01*
X128577500Y-103832500D02*
X133350000Y-103832500D01*
X128270000Y-103525000D02*
X128577500Y-103832500D01*
X138430000Y-103832500D02*
X143510000Y-103832500D01*
X143510000Y-103832500D02*
X148590000Y-103832500D01*
X153670000Y-103832500D02*
X148590000Y-103832500D01*
X118110000Y-103832500D02*
X110182500Y-103832500D01*
X102870000Y-98062002D02*
X102870000Y-97790000D01*
X104497999Y-99690001D02*
X102870000Y-98062002D01*
X106040001Y-99690001D02*
X104497999Y-99690001D01*
X110182500Y-103832500D02*
X106040001Y-99690001D01*
X135810000Y-104220000D02*
X136197500Y-103832500D01*
X135810000Y-109220000D02*
X135810000Y-104220000D01*
X133350000Y-103832500D02*
X136197500Y-103832500D01*
X136197500Y-103832500D02*
X138430000Y-103832500D01*
X114300000Y-115570000D02*
X114300000Y-109220000D01*
X119072500Y-104447500D02*
X119072500Y-103832500D01*
X114300000Y-109220000D02*
X119072500Y-104447500D01*
X118110000Y-103832500D02*
X119072500Y-103832500D01*
X119072500Y-103832500D02*
X123190000Y-103832500D01*
X97790000Y-102140000D02*
X86900000Y-102140000D01*
X80130001Y-95370001D02*
X79889999Y-95370001D01*
X86900000Y-102140000D02*
X80130001Y-95370001D01*
X130483198Y-106720000D02*
X130443198Y-106680000D01*
X133310000Y-106720000D02*
X130483198Y-106720000D01*
X130190000Y-106680000D02*
X121300000Y-115570000D01*
X130443198Y-106680000D02*
X130190000Y-106680000D01*
X148590000Y-66040000D02*
X143510000Y-71120000D01*
X121020000Y-71120000D02*
X119750000Y-72390000D01*
X143510000Y-71120000D02*
X121020000Y-71120000D01*
X109560000Y-76200000D02*
X105750000Y-72390000D01*
X152400000Y-76200000D02*
X109560000Y-76200000D01*
X157480000Y-66040000D02*
X157480000Y-71120000D01*
X157480000Y-71120000D02*
X152400000Y-76200000D01*
X106799999Y-67840001D02*
X102250000Y-72390000D01*
X134089999Y-67840001D02*
X106799999Y-67840001D01*
X135890000Y-66040000D02*
X134089999Y-67840001D01*
X165100000Y-85660002D02*
X168600000Y-82160002D01*
X165100000Y-90170000D02*
X165100000Y-85660002D01*
X168600000Y-82160002D02*
X168600000Y-81280000D01*
X161290000Y-93980000D02*
X165100000Y-90170000D01*
X128270000Y-55880000D02*
X130810000Y-58420000D01*
X82550000Y-58420000D02*
X85090000Y-55880000D01*
X85090000Y-55880000D02*
X128270000Y-55880000D01*
X162560000Y-60960000D02*
X162560000Y-58420000D01*
X161290000Y-62230000D02*
X162560000Y-60960000D01*
X124460000Y-62230000D02*
X161290000Y-62230000D01*
X119380000Y-66040000D02*
X120650000Y-66040000D01*
X120650000Y-66040000D02*
X124460000Y-62230000D01*
X108689999Y-60220001D02*
X110490000Y-58420000D01*
X99060000Y-58420000D02*
X100860001Y-60220001D01*
X100860001Y-60220001D02*
X108689999Y-60220001D01*
X117579999Y-60220001D02*
X119380000Y-58420000D01*
X112290001Y-60220001D02*
X117579999Y-60220001D01*
X110490000Y-58420000D02*
X112290001Y-60220001D01*
X167640000Y-88900000D02*
X170466802Y-88900000D01*
X170466802Y-88900000D02*
X175260000Y-93693198D01*
X175260000Y-93693198D02*
X175260000Y-93900000D01*
M02*
