M48
; DRILL file {KiCad (5.1.6)-1} date 09/16/20 08:59:39
; FORMAT={-:-/ absolute / metric / decimal}
; #@! TF.CreationDate,2020-09-16T08:59:39-06:00
; #@! TF.GenerationSoftware,Kicad,Pcbnew,(5.1.6)-1
FMAT,2
METRIC
T1C0.600
T2C0.700
T3C0.800
T4C0.900
T5C1.000
T6C1.100
T7C1.200
T8C3.200
T9C6.100
%
G90
G05
T1
X97.79Y-104.14
X102.87Y-104.14
X97.06Y-83.82
X102.14Y-83.82
X104.14Y-83.82
X97.79Y-102.14
X104.87Y-104.14
X90.17Y-83.82
X92.17Y-83.82
X99.06Y-83.82
T2
X143.51Y-88.9
X143.51Y-96.52
X153.67Y-58.42
X153.67Y-66.04
X104.14Y-58.42
X104.14Y-66.04
X92.71Y-58.42
X92.71Y-66.04
X133.35Y-88.9
X133.35Y-96.52
X110.49Y-58.42
X110.49Y-66.04
X162.56Y-58.42
X162.56Y-66.04
X135.89Y-58.42
X135.89Y-66.04
X123.19Y-88.9
X123.19Y-96.52
X144.78Y-58.42
X144.78Y-66.04
X87.63Y-58.42
X87.63Y-66.04
X139.7Y-58.42
X139.7Y-66.04
X148.59Y-88.9
X148.59Y-96.52
X157.48Y-58.42
X157.48Y-66.04
X138.43Y-88.9
X138.43Y-96.52
X99.06Y-58.42
X99.06Y-66.04
X114.3Y-58.42
X114.3Y-66.04
X82.55Y-58.42
X82.55Y-66.04
X128.27Y-88.9
X128.27Y-96.52
X119.38Y-58.42
X119.38Y-66.04
X148.59Y-58.42
X148.59Y-66.04
X118.11Y-88.9
X118.11Y-96.52
X101.6Y-110.49
X109.22Y-110.49
X130.81Y-58.42
X130.81Y-66.04
X153.67Y-88.9
X153.67Y-96.52
T3
X87.63Y-90.17
X87.63Y-97.79
X90.17Y-90.17
X90.17Y-97.79
X92.71Y-90.17
X92.71Y-97.79
X95.25Y-90.17
X95.25Y-97.79
X97.79Y-90.17
X97.79Y-97.79
X100.33Y-90.17
X100.33Y-97.79
X102.87Y-90.17
X102.87Y-97.79
X105.41Y-90.17
X105.41Y-97.79
T4
X167.64Y-88.9
X167.64Y-93.9
X170.14Y-91.4
X130.81Y-109.22
X133.31Y-106.72
X135.81Y-109.22
X175.26Y-88.9
X175.26Y-93.9
X177.76Y-91.4
T5
X73.36Y-86.475
X73.36Y-89.245
X73.36Y-92.015
X73.36Y-94.785
X76.2Y-85.09
X76.2Y-87.86
X76.2Y-90.63
X76.2Y-93.4
X76.2Y-96.17
T6
X161.29Y-88.9
X161.29Y-93.98
X132.08Y-48.26
X132.08Y-52.76
X138.58Y-48.26
X138.58Y-52.76
X166.37Y-48.26
X166.37Y-52.76
X172.87Y-48.26
X172.87Y-52.76
X87.48Y-47.57
X87.48Y-52.07
X93.98Y-47.57
X93.98Y-52.07
X109.22Y-48.26
X109.22Y-52.76
X115.72Y-48.26
X115.72Y-52.76
X97.79Y-48.26
X97.79Y-52.76
X104.29Y-48.26
X104.29Y-52.76
X154.94Y-48.26
X154.94Y-52.76
X161.44Y-48.26
X161.44Y-52.76
X143.51Y-48.26
X143.51Y-52.76
X150.01Y-48.26
X150.01Y-52.76
X120.65Y-48.26
X120.65Y-52.76
X127.15Y-48.26
X127.15Y-52.76
T7
X95.25Y-72.39
X98.75Y-72.39
X102.25Y-72.39
X105.75Y-72.39
X109.25Y-72.39
X112.75Y-72.39
X116.25Y-72.39
X119.75Y-72.39
X171.535Y-70.445
X175.035Y-70.445
X178.535Y-70.445
X182.035Y-70.445
X185.535Y-70.445
X189.035Y-70.445
X192.535Y-70.445
X196.035Y-70.445
X121.92Y-83.82
X125.42Y-83.82
X128.92Y-83.82
X132.42Y-83.82
X135.92Y-83.82
X139.42Y-83.82
X142.92Y-83.82
X146.42Y-83.82
X110.49Y-124.46
X113.99Y-124.46
X117.49Y-124.46
X124.46Y-124.46
X127.96Y-124.46
X131.46Y-124.46
X134.96Y-124.46
X138.46Y-124.46
X141.96Y-124.46
X145.46Y-124.46
X148.96Y-124.46
X152.46Y-124.46
X155.96Y-124.46
X159.46Y-124.46
X165.1Y-81.28
X168.6Y-81.28
X172.1Y-81.28
X171.535Y-61.395
X175.035Y-61.395
X178.535Y-61.395
X182.035Y-61.395
X185.535Y-61.395
X189.035Y-61.395
X192.535Y-61.395
X196.035Y-61.395
X86.67Y-107.95
X90.17Y-107.95
X114.3Y-115.57
X117.8Y-115.57
X121.3Y-115.57
X124.8Y-115.57
X128.3Y-115.57
X131.8Y-115.57
X135.3Y-115.57
X138.8Y-115.57
X142.3Y-115.57
X145.8Y-115.57
X149.3Y-115.57
X152.8Y-115.57
X156.3Y-115.57
X159.8Y-115.57
X75.55Y-118.11
X79.05Y-118.11
X82.55Y-118.11
T8
X75.9Y-78.13
X75.9Y-103.13
T9
X195.58Y-48.26
X69.85Y-127.0
X195.58Y-128.27
X69.85Y-49.53
T0
M30
